<svg xmlns="http://www.w3.org/2000/svg" width="356.5" height="356.5" viewBox="0 0 356.5 356.5"><defs><style>.a{fill:none;}.b{fill:#0087a9;}</style></defs><path class="a" d="M0,0H356.5V356.5H0Z"/><path class="b" d="M255.521,188.677a168.749,168.749,0,0,1-53.029-8.467,15.16,15.16,0,0,0-15.151,3.565l-32.679,32.679a223.486,223.486,0,0,1-97.889-97.889L89.451,85.738a14.26,14.26,0,0,0,3.714-14.854A168.749,168.749,0,0,1,84.7,17.854,14.9,14.9,0,0,0,69.844,3H17.854A14.9,14.9,0,0,0,3,17.854C3,157.335,116.04,270.375,255.521,270.375a14.9,14.9,0,0,0,14.854-14.854v-51.99A14.9,14.9,0,0,0,255.521,188.677Zm-14.854-51.99h29.708A133.7,133.7,0,0,0,136.688,3V32.708A103.9,103.9,0,0,1,240.667,136.688Zm-59.417,0h29.708a74.3,74.3,0,0,0-74.271-74.271V92.125A44.5,44.5,0,0,1,181.25,136.688Z" transform="translate(41.563 41.563)"/></svg>