<svg xmlns="http://www.w3.org/2000/svg" width="30" height="46.25" viewBox="0 0 30 46.25"><defs><style>.a{fill:#0087a9;}.b,.c{fill:none;}.c{stroke:#0087a9;stroke-linecap:round;stroke-width:2.5px;stroke-dasharray:0.5 5;}</style></defs><g transform="translate(-17 -202)"><g transform="translate(17 203)"><path class="a" d="M15,2C9.471,2,5,6.069,5,11.1,5,17.925,15,28,15,28S25,17.925,25,11.1C25,6.069,20.529,2,15,2Zm0,12.35a3.423,3.423,0,0,1-3.571-3.25A3.423,3.423,0,0,1,15,7.85a3.423,3.423,0,0,1,3.571,3.25A3.423,3.423,0,0,1,15,14.35Z" transform="translate(0 -3)"/><path class="b" d="M0,0H30V30H0Z"/></g><path class="c" d="M0,0V14" transform="translate(32.5 233)"/></g></svg>