<svg xmlns="http://www.w3.org/2000/svg" width="168.946" height="50" viewBox="0 0 168.946 50"><defs><style>.a,.b{fill:#001e3e;}.b{font-size:33px;font-family:HelveticaNeue-Light, Helvetica Neue;font-weight:300;}</style></defs><path class="a" d="M433.75,512.281H409.543a22.562,22.562,0,0,0,5.831-1.7,21.36,21.36,0,0,0,7.574-5.663,23.864,23.864,0,0,0,4.538-8.55,37.267,37.267,0,0,0,1.5-10.8,33.521,33.521,0,0,0-1.838-11.624,22.957,22.957,0,0,0-5.1-8.25,20.769,20.769,0,0,0-4.421-3.409H433.75a10.011,10.011,0,0,1,10,10v30A10.011,10.011,0,0,1,433.75,512.281Zm-29.888-9.54h-10.1c-.007-.161-.01-.316-.01-.46v-30a9.979,9.979,0,0,1,.554-3.29h7.458a19.1,19.1,0,0,1,7.313,1.238,11.521,11.521,0,0,1,4.762,3.562,14.642,14.642,0,0,1,2.587,5.587,31.343,31.343,0,0,1,.788,7.313,22.035,22.035,0,0,1-1.125,7.5,13.805,13.805,0,0,1-3,4.987,10.941,10.941,0,0,1-4.275,2.738A15.2,15.2,0,0,1,403.862,502.741Z" transform="translate(-393.75 -462.281)"/><g transform="translate(55.946 11)"><text class="b" transform="translate(0 32)"><tspan x="0" y="0">driveMe</tspan></text></g></svg>