<svg xmlns="http://www.w3.org/2000/svg" width="55" height="55" viewBox="0 0 55 55"><defs><style>.a{fill:#bcbcbc;}.b{fill:none;}</style></defs><path class="a" d="M20,28.522a6.378,6.378,0,0,0,6.407-6.38L26.429,9.38a6.429,6.429,0,0,0-12.857,0V22.141A6.4,6.4,0,0,0,20,28.522Zm11.357-6.38c0,6.38-5.443,10.847-11.357,10.847S8.643,28.522,8.643,22.141H5c0,7.274,5.829,13.25,12.857,14.292V43.41h4.286V36.434C29.171,35.413,35,29.415,35,22.141Z" transform="translate(9.591 5.754)"/><path class="b" d="M0,0H55V55H0Z"/></svg>