<svg xmlns="http://www.w3.org/2000/svg" width="46" height="46" viewBox="0 0 46 46"><defs><style>.a{fill:#bcbcbc;}.b{fill:none;}</style></defs><path class="a" d="M21.167,2A19.167,19.167,0,1,0,40.333,21.167,19.174,19.174,0,0,0,21.167,2Zm0,5.75a5.75,5.75,0,1,1-5.75,5.75A5.742,5.742,0,0,1,21.167,7.75Zm0,27.217A13.8,13.8,0,0,1,9.667,28.8c.058-3.814,7.667-5.9,11.5-5.9,3.814,0,11.443,2.089,11.5,5.9A13.8,13.8,0,0,1,21.167,34.967Z" transform="translate(1.833 1.833)"/><path class="b" d="M0,0H46V46H0Z"/></svg>