<svg xmlns="http://www.w3.org/2000/svg" width="576.946" height="208" viewBox="0 0 576.946 208"><defs><style>.a,.b{fill:#fff;}.b{font-size:100px;font-family:HelveticaNeue-Light, Helvetica Neue;font-weight:300;}</style></defs><g transform="translate(-337 -408)"><g transform="translate(337 408)"><path class="a" d="M249,288H147.493a82.163,82.163,0,0,0,8.357-3.25,90.084,90.084,0,0,0,16.65-9.787A82.548,82.548,0,0,0,186.15,262.1a89.523,89.523,0,0,0,10.613-15.75A103.368,103.368,0,0,0,204.3,227.9a136.256,136.256,0,0,0,4.5-20.7,164.234,164.234,0,0,0,1.5-22.5,160.869,160.869,0,0,0-1.838-24.975A112.528,112.528,0,0,0,202.95,138.2a102.209,102.209,0,0,0-8.775-18.15A82.677,82.677,0,0,0,168.3,93.65a86.493,86.493,0,0,0-16.65-8.25A105.209,105.209,0,0,0,130.233,80H249a24.979,24.979,0,0,1,25,25V263a24.979,24.979,0,0,1-25,25ZM109.8,253.4h-42v-135h33.6a96.659,96.659,0,0,1,16.012,1.237,60.73,60.73,0,0,1,13.238,3.713,50,50,0,0,1,10.687,6.037A43.582,43.582,0,0,1,149.7,137.6a53.336,53.336,0,0,1,6.188,10.238,65.406,65.406,0,0,1,4.162,12.112,125.454,125.454,0,0,1,3.15,29.25,111.048,111.048,0,0,1-1.125,16.35A70.206,70.206,0,0,1,158.7,219.2a64.955,64.955,0,0,1-5.25,11.137,47.649,47.649,0,0,1-6.75,8.812,46.119,46.119,0,0,1-8.025,6.563A42.43,42.43,0,0,1,129.6,250.1,60.781,60.781,0,0,1,109.8,253.4Z" transform="translate(-67.8 -80)"/></g><text class="b" transform="translate(573.946 595)"><tspan x="0" y="0">driveMe</tspan></text></g></svg>