<svg xmlns="http://www.w3.org/2000/svg" width="283.082" height="100" viewBox="0 0 283.082 100"><defs><style>.a,.b{fill:#fff;}.b{font-size:50px;font-family:HelveticaNeue-Light, Helvetica Neue;font-weight:300;}</style></defs><g transform="translate(-57.918 -306)"><g transform="translate(57.918 306)"><path class="a" d="M75,100H44.524c.275-.117.571-.247.878-.386a45.056,45.056,0,0,0,8.325-4.894,41.265,41.265,0,0,0,6.825-6.432,47.754,47.754,0,0,0,9.076-17.1,74.545,74.545,0,0,0,3-21.6,67.054,67.054,0,0,0-3.675-23.25,45.91,45.91,0,0,0-10.2-16.5A42,42,0,0,0,43.467,0H75a24.979,24.979,0,0,1,25,25V75a24.979,24.979,0,0,1-25,25ZM22.378,83.939H1.645c-.1-.249-.185-.5-.268-.735V16.8q.062-.18.127-.358H18.177A38.208,38.208,0,0,1,32.8,18.914a23.043,23.043,0,0,1,9.525,7.125A29.293,29.293,0,0,1,47.5,37.213a62.732,62.732,0,0,1,1.575,14.625,44.086,44.086,0,0,1-2.25,15,27.638,27.638,0,0,1-6,9.975,21.9,21.9,0,0,1-8.55,5.476A30.394,30.394,0,0,1,22.378,83.939Z" transform="translate(-1.377)"/></g><text class="b" transform="translate(171 395)"><tspan x="0" y="0">driveMe</tspan></text></g></svg>